<svg width="36" height="36" viewBox="0 0 36 36" fill="none" xmlns="http://www.w3.org/2000/svg">
<g clip-path="url(#clip0_133_4)">
<path d="M18 35.5333C27.6834 35.5333 35.5333 27.6833 35.5333 18C35.5333 8.31662 27.6834 0.466705 18 0.466705C8.31668 0.466705 0.466766 8.31662 0.466766 18C0.466766 27.6833 8.31668 35.5333 18 35.5333Z" fill="url(#paint0_radial_133_4)"/>
<path d="M18 35.5333C27.6834 35.5333 35.5333 27.6833 35.5333 18C35.5333 8.31662 27.6834 0.466705 18 0.466705C8.31668 0.466705 0.466766 8.31662 0.466766 18C0.466766 27.6833 8.31668 35.5333 18 35.5333Z" fill="url(#paint1_radial_133_4)"/>
<path d="M17.845 20.9636C16.6209 20.9643 15.3973 21.2817 14.301 21.9157C12.6043 22.8969 11.416 24.5224 10.9649 26.3805C10.7906 27.0987 11.3692 26.8432 11.6724 26.2489C13.226 23.8493 13.7628 23.6139 15.2383 22.9454C16.7962 22.2394 18.7729 22.3425 20.3319 23.0471C21.8099 23.7151 23.1369 24.694 24.0164 26.3805C24.4163 27.1473 24.795 27.013 24.7334 26.3805C24.2817 24.5197 23.0907 22.8924 21.3906 21.9117C20.2936 21.2789 19.069 20.9629 17.845 20.9636Z" fill="#333333"/>
<path fill-rule="evenodd" clip-rule="evenodd" d="M14.9415 12.3935C15.0289 8.08671 9.81328 6.92899 8.51144 7.20166C7.20959 7.47433 7.94296 8.8691 8.51144 8.8691C9.07922 8.8691 13.3578 9.65642 13.161 10.2313C12.1772 10.2332 11.3802 11.2964 11.3802 12.6076C11.3802 13.92 12.1787 14.9839 13.1638 14.9839C14.1488 14.9839 14.9474 13.92 14.9474 12.6076C14.9474 12.5348 14.9449 12.4628 14.9401 12.3917L14.9415 12.3935Z" fill="#333333"/>
<ellipse cx="13.2008" cy="13.1722" rx="1.54026" ry="1.75105" fill="url(#paint2_linear_133_4)"/>
<path fill-rule="evenodd" clip-rule="evenodd" d="M21.1648 12.3935C21.0774 8.08671 26.2928 6.92899 27.5945 7.20166C28.8963 7.47433 28.163 8.8691 27.5945 8.8691C27.0268 8.8691 22.7484 9.65642 22.9452 10.2313C23.9289 10.2333 24.7259 11.2964 24.7259 12.6076C24.7259 13.92 23.9274 14.9839 22.9424 14.9839C21.9574 14.9839 21.1589 13.92 21.1589 12.6076C21.1589 12.5348 21.1614 12.4629 21.1662 12.3918L21.1648 12.3935Z" fill="#333333"/>
<ellipse cx="22.9522" cy="13.2328" rx="1.54026" ry="1.75105" fill="url(#paint3_linear_133_4)"/>
</g>
<defs>
<radialGradient id="paint0_radial_133_4" cx="0" cy="0" r="1" gradientUnits="userSpaceOnUse" gradientTransform="translate(17.4096 6.93566) rotate(89.3883) scale(55.3135 55.3135)">
<stop stop-color="#FF1E26"/>
<stop offset="1" stop-color="#FF1E26" stop-opacity="0"/>
</radialGradient>
<radialGradient id="paint1_radial_133_4" cx="0" cy="0" r="1" gradientUnits="userSpaceOnUse" gradientTransform="translate(18 19.4356) rotate(167.573) scale(16.9967 16.9967)">
<stop stop-color="#D10007" stop-opacity="0"/>
<stop offset="1" stop-color="#D10007"/>
</radialGradient>
<linearGradient id="paint2_linear_133_4" x1="13.2008" y1="11.4211" x2="13.2008" y2="14.9232" gradientUnits="userSpaceOnUse">
<stop stop-color="#333333"/>
<stop offset="1" stop-color="#D9D9D9" stop-opacity="0"/>
</linearGradient>
<linearGradient id="paint3_linear_133_4" x1="22.9522" y1="11.4818" x2="22.9522" y2="14.9839" gradientUnits="userSpaceOnUse">
<stop stop-color="#333333"/>
<stop offset="1" stop-color="#D9D9D9" stop-opacity="0"/>
</linearGradient>
<clipPath id="clip0_133_4">
<rect x="6.10352e-05" width="36" height="36" rx="18" fill="white"/>
</clipPath>
</defs>
</svg>
