<svg width="36" height="36" viewBox="0 0 36 36" fill="none" xmlns="http://www.w3.org/2000/svg">
<g clip-path="url(#clip0_133_30)">
<path d="M18.0001 35.5333C27.6834 35.5333 35.5333 27.6833 35.5333 18C35.5333 8.31662 27.6834 0.466705 18.0001 0.466705C8.31671 0.466705 0.466797 8.31662 0.466797 18C0.466797 27.6833 8.31671 35.5333 18.0001 35.5333Z" fill="url(#paint0_radial_133_30)"/>
<path d="M18 35.5333C27.6834 35.5333 35.5333 27.6833 35.5333 18C35.5333 8.31662 27.6834 0.466705 18 0.466705C8.31665 0.466705 0.466736 8.31662 0.466736 18C0.466736 27.6833 8.31665 35.5333 18 35.5333Z" fill="url(#paint1_radial_133_30)"/>
<path d="M11.3802 12.6076C11.3802 13.92 12.1788 14.9839 13.1638 14.9839C14.1488 14.9839 14.9474 13.92 14.9474 12.6076C14.9474 11.2952 14.1488 10.2313 13.1638 10.2313C12.1788 10.2313 11.3802 11.2952 11.3802 12.6076Z" fill="#333333"/>
<ellipse cx="13.2008" cy="13.1722" rx="1.54026" ry="1.75105" fill="url(#paint2_linear_133_30)"/>
<path d="M24.7259 12.6076C24.7259 13.92 23.9274 14.9839 22.9424 14.9839C21.9574 14.9839 21.1589 13.92 21.1589 12.6076C21.1589 11.2952 21.9574 10.2313 22.9424 10.2313C23.9274 10.2313 24.7259 11.2952 24.7259 12.6076Z" fill="#333333"/>
<ellipse cx="22.9521" cy="13.2328" rx="1.54026" ry="1.75105" fill="url(#paint3_linear_133_30)"/>
<path d="M13.3808 21.821C12.8501 21.821 12.4225 22.1345 12.4225 22.5241V22.7416C12.4225 23.1312 12.8501 23.445 13.3808 23.445H22.6198C23.1505 23.445 23.5776 23.1312 23.5776 22.7416V22.5241C23.5776 22.1345 23.1505 21.821 22.6198 21.821H13.3808Z" fill="#333333"/>
</g>
<defs>
<radialGradient id="paint0_radial_133_30" cx="0" cy="0" r="1" gradientUnits="userSpaceOnUse" gradientTransform="translate(17.4096 6.93566) rotate(89.3883) scale(55.3135 55.3135)">
<stop stop-color="#FFF823"/>
<stop offset="1" stop-color="#FFF823" stop-opacity="0"/>
</radialGradient>
<radialGradient id="paint1_radial_133_30" cx="0" cy="0" r="1" gradientUnits="userSpaceOnUse" gradientTransform="translate(18 19.4356) rotate(167.573) scale(16.9967 16.9967)">
<stop stop-color="#FFF823" stop-opacity="0"/>
<stop offset="1" stop-color="#D3CE25"/>
</radialGradient>
<linearGradient id="paint2_linear_133_30" x1="13.2008" y1="11.4211" x2="13.2008" y2="14.9232" gradientUnits="userSpaceOnUse">
<stop stop-color="#333333"/>
<stop offset="1" stop-color="#D9D9D9" stop-opacity="0"/>
</linearGradient>
<linearGradient id="paint3_linear_133_30" x1="22.9521" y1="11.4818" x2="22.9521" y2="14.9839" gradientUnits="userSpaceOnUse">
<stop stop-color="#333333"/>
<stop offset="1" stop-color="#D9D9D9" stop-opacity="0"/>
</linearGradient>
<clipPath id="clip0_133_30">
<rect x="6.10352e-05" width="36" height="36" rx="18" fill="white"/>
</clipPath>
</defs>
</svg>
