<svg width="36" height="36" viewBox="0 0 36 36" fill="none" xmlns="http://www.w3.org/2000/svg">
<g clip-path="url(#clip0_133_54)">
<path d="M18.0001 35.5333C27.6835 35.5333 35.5334 27.6833 35.5334 18C35.5334 8.31662 27.6835 0.466705 18.0001 0.466705C8.31677 0.466705 0.466858 8.31662 0.466858 18C0.466858 27.6833 8.31677 35.5333 18.0001 35.5333Z" fill="url(#paint0_radial_133_54)"/>
<path d="M18.0001 35.5333C27.6834 35.5333 35.5334 27.6833 35.5334 18C35.5334 8.31662 27.6834 0.466705 18.0001 0.466705C8.31671 0.466705 0.466797 8.31662 0.466797 18C0.466797 27.6833 8.31671 35.5333 18.0001 35.5333Z" fill="url(#paint1_radial_133_54)"/>
<path d="M17.845 26.9065C16.6209 26.9058 15.3973 26.5884 14.301 25.9544C12.6043 24.9732 11.416 23.3477 10.9649 21.4896C10.7906 20.7714 11.3692 21.0269 11.6724 21.6212C13.226 24.0208 13.7628 24.2562 15.2383 24.9247C16.7962 25.6307 18.7729 25.5276 20.3319 24.823C21.8099 24.155 23.1369 23.1761 24.0164 21.4896C24.4163 20.7227 24.795 20.8571 24.7334 21.4896C24.2817 23.3504 23.0907 24.9777 21.3906 25.9584C20.2936 26.5912 19.069 26.9072 17.845 26.9065Z" fill="#333333"/>
<ellipse cx="1.78359" cy="2.3763" rx="1.78359" ry="2.3763" transform="matrix(-1 0 0 1 14.9474 10.2313)" fill="#333333"/>
<ellipse cx="13.2008" cy="13.1721" rx="1.54026" ry="1.75105" fill="url(#paint2_linear_133_54)"/>
<path d="M23.2736 6.73014C24.5433 6.75673 25.9377 7.94048 26.8156 10.3956C26.89 10.6038 26.6153 10.6475 26.5062 10.5109C25.5327 8.39993 23.621 7.93751 23.0945 7.81017C22.5681 7.68283 22.0038 6.70355 23.2736 6.73014Z" fill="#333333"/>
<path d="M12.77 6.6981C11.5005 6.66096 10.0485 7.77328 9.04855 10.1813C8.96379 10.3854 9.23594 10.4429 9.35172 10.312C10.4299 8.25247 12.3624 7.88653 12.8946 7.78575C13.4268 7.68498 14.0394 6.73524 12.77 6.6981Z" fill="#333333"/>
<ellipse cx="22.9424" cy="12.6076" rx="1.78349" ry="2.3763" fill="#333333"/>
<ellipse cx="22.9521" cy="13.2328" rx="1.54026" ry="1.75105" fill="url(#paint3_linear_133_54)"/>
</g>
<defs>
<radialGradient id="paint0_radial_133_54" cx="0" cy="0" r="1" gradientUnits="userSpaceOnUse" gradientTransform="translate(17.4096 6.93566) rotate(89.3883) scale(55.3135 55.3135)">
<stop stop-color="#7FE611"/>
<stop offset="1" stop-color="#7FE611" stop-opacity="0"/>
</radialGradient>
<radialGradient id="paint1_radial_133_54" cx="0" cy="0" r="1" gradientUnits="userSpaceOnUse" gradientTransform="translate(18.0001 19.4356) rotate(167.573) scale(16.9967 16.9967)">
<stop stop-color="#7FE611" stop-opacity="0"/>
<stop offset="1" stop-color="#4C9202"/>
</radialGradient>
<linearGradient id="paint2_linear_133_54" x1="13.2008" y1="11.4211" x2="13.2008" y2="14.9232" gradientUnits="userSpaceOnUse">
<stop stop-color="#333333"/>
<stop offset="1" stop-color="#D9D9D9" stop-opacity="0"/>
</linearGradient>
<linearGradient id="paint3_linear_133_54" x1="22.9521" y1="11.4818" x2="22.9521" y2="14.9839" gradientUnits="userSpaceOnUse">
<stop stop-color="#333333"/>
<stop offset="1" stop-color="#D9D9D9" stop-opacity="0"/>
</linearGradient>
<clipPath id="clip0_133_54">
<rect x="0.00012207" width="36" height="36" rx="18" fill="white"/>
</clipPath>
</defs>
</svg>
